# xmcd CD database file
#
# Track frame offsets:
#	150
#	21035
#	40045
#	59280
#	76508
#	94012
#	119861
#	140312
#	155880
#	174758
#	196945
#	219589
#
# Disc length: 3083 seconds
#
# Revision: 1
# Processed by: cddbd v1.5.1PL0 Copyright (c) Steve Scherf et al.
# Submitted via: CDex 1.51
#
DISCID=980c090c
DTITLE=East Blues Experience - East Blues Experience
DYEAR=1900
DGENRE=
TTITLE0=Intro
TTITLE1=Closer to it
TTITLE2=Her love is like a river
TTITLE3=Knockin' at your Window
TTITLE4=You haven't done nothing
TTITLE5=It's so easy to love you
TTITLE6=An old indian saying
TTITLE7=Back to the city
TTITLE8=Give it up
TTITLE9=Power of soul
TTITLE10=Tell me how
TTITLE11=Outro
EXTD=
EXTT0=
EXTT1=
EXTT2=
EXTT3=
EXTT4=
EXTT5=
EXTT6=
EXTT7=
EXTT8=
EXTT9=
EXTT10=
EXTT11=
PLAYORDER=
